<svg id="name" class="svg-name" xmlns="http://www.w3.org/2000/svg" viewBox="0 0 452.77 117.3">
  <path class="colombia-shadow" class="cls-1" d="M113.45,727.07c-.29-.32-.55-.66-.81-1a12.88,12.88,0,0,0,7.62,2.39,25.28,25.28,0,0,0,3-.17,12.76,12.76,0,0,0,2.56-.54,10.41,10.41,0,0,0,2.23-1,13.81,13.81,0,0,0,2.12-1.61,4.37,4.37,0,0,1,.94-.59,2.35,2.35,0,0,1,1-.23,2.43,2.43,0,0,1,.87.16,2.31,2.31,0,0,1,.82.56l2.47,2.59a2,2,0,0,0-.29-.15,2.43,2.43,0,0,0-.87-.16,2.35,2.35,0,0,0-1,.23,4.37,4.37,0,0,0-.94.59,13.81,13.81,0,0,1-2.12,1.61,10.41,10.41,0,0,1-2.23,1,12.76,12.76,0,0,1-2.56.54,25.28,25.28,0,0,1-3,.17,13.25,13.25,0,0,1-5.4-1.12A12.61,12.61,0,0,1,113.45,727.07Zm-14.78-1.76a31.33,31.33,0,0,1-1.76-10.68,29.6,29.6,0,0,1,1.9-10.78,25,25,0,0,1,5.37-8.48,24.15,24.15,0,0,1,8.28-5.54,27.67,27.67,0,0,1,10.62-2,28.22,28.22,0,0,1,5.56.52,27.74,27.74,0,0,1,4.88,1.44,21.79,21.79,0,0,1,4.17,2.22,1.53,1.53,0,0,1,.16.11l.23-.31a22.55,22.55,0,0,0-3.39-2.8,21.79,21.79,0,0,0-4.17-2.22,27.74,27.74,0,0,0-4.88-1.44,28.22,28.22,0,0,0-5.56-.52,27.67,27.67,0,0,0-10.62,2,24.15,24.15,0,0,0-8.28,5.54,25,25,0,0,0-5.37,8.48,29.6,29.6,0,0,0-1.9,10.78,31.33,31.33,0,0,0,1.76,10.68,24.54,24.54,0,0,0,5.06,8.49,21.27,21.27,0,0,0,2.25,2.1A24.9,24.9,0,0,1,98.67,725.31Zm69.42,4.93a16.33,16.33,0,0,0,6.29,1.13,16,16,0,0,0,6.22-1.13,12.32,12.32,0,0,0,4.63-3.29,14.8,14.8,0,0,0,2.9-5.28,24.9,24.9,0,0,0,0-14,14.83,14.83,0,0,0-2.9-5.27,12.4,12.4,0,0,0-2.19-2,15.68,15.68,0,0,1,2.09,4.24,24.9,24.9,0,0,1,0,14,14.8,14.8,0,0,1-2.9,5.28,12.32,12.32,0,0,1-4.63,3.29,16,16,0,0,1-6.22,1.13,16.33,16.33,0,0,1-6.29-1.13,12.68,12.68,0,0,1-2.46-1.35c.26.37.53.72.82,1.06A12.36,12.36,0,0,0,168.09,730.24Zm-19-5a29.56,29.56,0,0,1,0-21.17,25.37,25.37,0,0,1,5.54-8.5,25.71,25.71,0,0,1,8.63-5.65,29.3,29.3,0,0,1,11.16-2,29,29,0,0,1,11.14,2.07A26.25,26.25,0,0,1,192.4,694c-.42-.49-.84-1-1.3-1.45a25.59,25.59,0,0,0-8.58-5.67,29,29,0,0,0-11.14-2.07,29.3,29.3,0,0,0-11.16,2,25.71,25.71,0,0,0-8.63,5.65,25.37,25.37,0,0,0-5.54,8.5,29.56,29.56,0,0,0,0,21.17,25.52,25.52,0,0,0,5.54,8.51c.54.54,1.11,1,1.7,1.54A25.7,25.7,0,0,1,149.05,725.22Zm76.19,5.94h16.44v-3H225.24Zm-12.16-42.73h9.16v-3H210.08v52.45h3Zm58.8,41.81a16.32,16.32,0,0,0,6.28,1.13,16.06,16.06,0,0,0,6.23-1.13A12.32,12.32,0,0,0,289,727a15,15,0,0,0,2.9-5.28,25.14,25.14,0,0,0,0-14,15,15,0,0,0-2.9-5.27,12.4,12.4,0,0,0-2.19-2,15.68,15.68,0,0,1,2.09,4.24,25.14,25.14,0,0,1,0,14A15,15,0,0,1,286,724a12.32,12.32,0,0,1-4.63,3.29,16.06,16.06,0,0,1-6.23,1.13,16.32,16.32,0,0,1-6.28-1.13,12.68,12.68,0,0,1-2.46-1.35c.26.37.53.72.82,1.06A12.36,12.36,0,0,0,271.88,730.24Zm-19-5a29.56,29.56,0,0,1,0-21.17,25.22,25.22,0,0,1,5.54-8.5A25.67,25.67,0,0,1,267,689.9a31.23,31.23,0,0,1,22.31,0,26.41,26.41,0,0,1,6.88,4.12c-.42-.5-.84-1-1.3-1.45a25.59,25.59,0,0,0-8.58-5.67,31.23,31.23,0,0,0-22.31,0,25.67,25.67,0,0,0-8.62,5.65,25.22,25.22,0,0,0-5.54,8.5,29.56,29.56,0,0,0,0,21.17,25.36,25.36,0,0,0,5.54,8.51c.54.54,1.11,1,1.7,1.54A25.46,25.46,0,0,1,252.84,725.22Zm64-36.79h9.29c.53,0,1,0,1.39,0l.25,0-.61-1.19a4.32,4.32,0,0,0-.73-1.06,2.42,2.42,0,0,0-.85-.56,3.76,3.76,0,0,0-1.06-.22c-.4,0-.86,0-1.39,0h-9.29v52.45h3Zm28.21,31.32c.44,1,.87,2,1.28,3,.41-1.06.83-2.09,1.28-3.1s.91-2,1.42-2.88l13.46-26.49a4.32,4.32,0,0,1,.74-1.06,2.25,2.25,0,0,1,.85-.56,3.68,3.68,0,0,1,1.06-.22c.39,0,.86,0,1.38,0h6.29v-3h-9.29c-.52,0-1,0-1.38,0a3.68,3.68,0,0,0-1.06.22,2.25,2.25,0,0,0-.85.56,4.32,4.32,0,0,0-.74,1.06l-13.46,26.49c-.51.92-1,1.88-1.42,2.88-.17.38-.32.79-.49,1.17C344.46,718.47,344.77,719.09,345.07,719.75Zm20-9c0-.7,0-1.45.06-2.27s.1-1.64.2-2.48l-3.26,6.29v25.63h3Zm-37.76-4.82c.07.86.13,1.71.18,2.53l0,.7,10.72,20.8a4.58,4.58,0,0,0,1.75,1.91,4.15,4.15,0,0,0,.89.39Zm98.09,8.91a10.73,10.73,0,0,0-2.46-2,21.59,21.59,0,0,1-2.21.94,17.93,17.93,0,0,1,5.56,2.28A9.66,9.66,0,0,0,425.43,714.8Zm-8.22,5.49a5.68,5.68,0,0,0-1.68-1,8.5,8.5,0,0,1,.36,2.51,9.57,9.57,0,0,1-.33,2.49,5.32,5.32,0,0,1-1.18,2.19,6.3,6.3,0,0,1-2.4,1.59,10.9,10.9,0,0,1-3.94.61h-5.57v3H411a10.9,10.9,0,0,0,3.94-.61,6.3,6.3,0,0,0,2.4-1.59,5.32,5.32,0,0,0,1.18-2.19,9.57,9.57,0,0,0,.33-2.49,8.34,8.34,0,0,0-.38-2.59A4.15,4.15,0,0,0,417.21,720.29Zm-1.6-21.35a5.42,5.42,0,0,0-1.49-.8,9.42,9.42,0,0,1,.4,2.91,7.54,7.54,0,0,1-.59,3.17,4.7,4.7,0,0,1-1.73,2,7.77,7.77,0,0,1-2.76,1,21.08,21.08,0,0,1-3.63.28h-3.34v3h6.34a21.08,21.08,0,0,0,3.63-.28,7.77,7.77,0,0,0,2.76-1,4.7,4.7,0,0,0,1.73-2,7.54,7.54,0,0,0,.59-3.17,8.89,8.89,0,0,0-.47-3.11A4.41,4.41,0,0,0,415.61,698.94ZM390.3,688.43h19.3a36.8,36.8,0,0,1,9.25,1,18.12,18.12,0,0,1,5.76,2.53,11,11,0,0,0-2.53-2.68,17.64,17.64,0,0,0-6.23-2.85,36.8,36.8,0,0,0-9.25-1H387.3v52.45h3Zm52.53,0h9.24v-3H439.83v52.45h3ZM500,729.11h-2l2.08,6.14a4.58,4.58,0,0,0,1.47,1.89,3.53,3.53,0,0,0,1.35.6Zm-8.78-25.87c-.41-1.24-.82-2.57-1.23-4-.29,1.21-.61,2.32-.94,3.39.11.29.21.58.32.84l4.86,14.37H483.91l-1,3h14.37l-4.86-14.37C492,705.55,491.65,704.48,491.25,703.24Zm-7.42-14.81h10.62l-1.16-3H480.83l-20.3,52.45h4.16Z" transform="translate(-76.49 -624.4)"/>
  <path class="scaleconf-shadow" class="cls-1" d="M104.9,649.85c-1.47-.52-2.9-1-4.3-1.41a28.64,28.64,0,0,1-3.75-1.38,8.88,8.88,0,0,1-2.64-1.8,3.46,3.46,0,0,1-.83-1.45c.15.09.31.17.47.25a28.64,28.64,0,0,0,3.75,1.38c1.4.42,2.83.89,4.3,1.41a38.39,38.39,0,0,1,4.3,1.81,14.47,14.47,0,0,1,3.74,2.67,11.24,11.24,0,0,1,1.33,1.58,15.38,15.38,0,0,0-2.07-1.25A38.39,38.39,0,0,0,104.9,649.85ZM83.41,668.66a3.52,3.52,0,0,1,1.13-1,2.93,2.93,0,0,1,1.53-.41,4.06,4.06,0,0,1,2.18.68c.73.46,1.56,1,2.48,1.51a20.17,20.17,0,0,0,3.19,1.51,11.83,11.83,0,0,0,4.25.69,8.08,8.08,0,0,0,5.14-1.46,5.53,5.53,0,0,0,1.84-4.63,4.35,4.35,0,0,0-1-3,7.48,7.48,0,0,0-2.26-1.71,5,5,0,0,1,.27,1.69,5.53,5.53,0,0,1-1.84,4.63,8.08,8.08,0,0,1-5.14,1.46,11.83,11.83,0,0,1-4.25-.69,20.17,20.17,0,0,1-3.19-1.51c-.92-.55-1.75-1-2.48-1.51a4.06,4.06,0,0,0-2.18-.68,2.93,2.93,0,0,0-1.53.41,3.52,3.52,0,0,0-1.13,1l-3.6,5.68a18.25,18.25,0,0,0,3.27,2.58Zm-.93-18.07a14.32,14.32,0,0,0,1.83,1.57,13.56,13.56,0,0,1-1.48-2.75,16.56,16.56,0,0,1-1-6.17A14.67,14.67,0,0,1,83,637.48a14.88,14.88,0,0,1,3.49-5A17,17,0,0,1,92.15,629a20.83,20.83,0,0,1,7.67-1.32,29,29,0,0,1,4.7.38,24,24,0,0,1,4.34,1.12,23.46,23.46,0,0,1,3.69,1.69l.33-.61a17.77,17.77,0,0,0-3.19-2.32,24.44,24.44,0,0,0-8.17-2.88,29,29,0,0,0-4.7-.38A20.83,20.83,0,0,0,89.15,626a17,17,0,0,0-5.65,3.51,14.88,14.88,0,0,0-3.49,5,14.67,14.67,0,0,0-1.19,5.76,16.56,16.56,0,0,0,1,6.17A12.52,12.52,0,0,0,82.48,650.59Zm63.64,19.54a13.09,13.09,0,0,0,5.4,1.12,25.28,25.28,0,0,0,3-.17,13.49,13.49,0,0,0,2.56-.53,11,11,0,0,0,2.23-1,14.38,14.38,0,0,0,2.12-1.6,4.41,4.41,0,0,1,.94-.6,2.5,2.5,0,0,1,1-.23,2.43,2.43,0,0,1,.87.16c.1,0,.19.1.29.15l-2.46-2.59a2.34,2.34,0,0,0-.83-.56,2.43,2.43,0,0,0-.87-.16,2.5,2.5,0,0,0-1,.23,4.41,4.41,0,0,0-.94.6,14.38,14.38,0,0,1-2.12,1.6,11,11,0,0,1-2.23,1,13.49,13.49,0,0,1-2.56.53,21.32,21.32,0,0,1-3,.17,14,14,0,0,1-3.64-.49,11.77,11.77,0,0,1-3.88-1.94,6.46,6.46,0,0,0,.71,1,8.31,8.31,0,0,0,1.18,1.19,13,13,0,0,0,1.77,1.31A14.73,14.73,0,0,0,146.12,670.13Zm-19.19-5a31.27,31.27,0,0,1-1.76-10.67,29.61,29.61,0,0,1,1.9-10.79,24.9,24.9,0,0,1,5.37-8.47,24,24,0,0,1,8.28-5.55,27.67,27.67,0,0,1,10.62-2,29,29,0,0,1,5.56.52,27.74,27.74,0,0,1,4.88,1.44,22.37,22.37,0,0,1,4.17,2.22c.06,0,.1.08.16.11l.23-.3a22,22,0,0,0-3.39-2.81,22.37,22.37,0,0,0-4.17-2.22,27.74,27.74,0,0,0-4.88-1.44,29,29,0,0,0-5.56-.52,27.67,27.67,0,0,0-10.62,2,24,24,0,0,0-8.28,5.55,24.9,24.9,0,0,0-5.37,8.47,29.61,29.61,0,0,0-1.9,10.79,31.27,31.27,0,0,0,1.76,10.67A27.77,27.77,0,0,0,129,670.6a27,27,0,0,0,3,3,24.43,24.43,0,0,1-2.15-2.76A25.21,25.21,0,0,1,126.93,665.11Zm83.16,3.8h-2l2.08,6.14a4.69,4.69,0,0,0,1.48,1.89,3.47,3.47,0,0,0,1.35.6ZM201.3,643c-.4-1.23-.81-2.57-1.22-4-.3,1.21-.62,2.33-1,3.39.11.29.22.58.33.84l4.86,14.37H194l-1,3h14.37l-4.86-14.37C202.1,645.35,201.71,644.28,201.3,643Zm-7.41-14.81h10.62l-1.17-3H190.89l-20.31,52.45h4.17ZM247.28,671h16.44v-3H247.28Zm-12.17-42.73h9.17v-3H232.11v52.45h3Zm42.12,0H308v-3H274.23v52.45h3Zm12.24,21.6H303v-3H289.47Zm0,21.49H308v-3H289.47Zm50.29-1.19a13.09,13.09,0,0,0,5.4,1.12,25.28,25.28,0,0,0,3-.17,13.17,13.17,0,0,0,2.56-.53,10.72,10.72,0,0,0,2.23-1,14.44,14.44,0,0,0,2.13-1.6,4.35,4.35,0,0,1,.93-.6,2.58,2.58,0,0,1,1.05-.23,2.42,2.42,0,0,1,.86.16,2.64,2.64,0,0,1,.29.15l-2.46-2.59a2.34,2.34,0,0,0-.83-.56,2.42,2.42,0,0,0-.86-.16,2.58,2.58,0,0,0-1.05.23,4.35,4.35,0,0,0-.93.6,14.44,14.44,0,0,1-2.13,1.6,10.72,10.72,0,0,1-2.23,1,13.17,13.17,0,0,1-2.56.53,25.28,25.28,0,0,1-3,.17,13.09,13.09,0,0,1-5.4-1.12,12.68,12.68,0,0,1-2.21-1.27c.25.35.52.69.8,1A12.61,12.61,0,0,0,339.76,670.13Zm-19.19-5a31.51,31.51,0,0,1-1.76-10.67,29.41,29.41,0,0,1,1.91-10.79,25,25,0,0,1,5.36-8.47,24,24,0,0,1,8.28-5.55,27.74,27.74,0,0,1,10.62-2,28.93,28.93,0,0,1,5.56.52,27.49,27.49,0,0,1,4.88,1.44,22.78,22.78,0,0,1,4.18,2.22l.15.11.23-.3a21.46,21.46,0,0,0-3.38-2.81,22.78,22.78,0,0,0-4.18-2.22,27.49,27.49,0,0,0-4.88-1.44,28.93,28.93,0,0,0-5.56-.52,27.74,27.74,0,0,0-10.62,2,24,24,0,0,0-8.28,5.55,25,25,0,0,0-5.36,8.47,29.41,29.41,0,0,0-1.91,10.79,31.51,31.51,0,0,0,1.76,10.67,24.6,24.6,0,0,0,5.06,8.49,22.57,22.57,0,0,0,2.26,2.11A25.09,25.09,0,0,1,320.57,665.11ZM390,670a16.28,16.28,0,0,0,6.28,1.14,16.09,16.09,0,0,0,6.23-1.14,12.26,12.26,0,0,0,4.62-3.29,14.8,14.8,0,0,0,2.9-5.28,24.9,24.9,0,0,0,0-14,14.83,14.83,0,0,0-2.9-5.27,12.06,12.06,0,0,0-2.19-2,15.68,15.68,0,0,1,2.09,4.24,24.9,24.9,0,0,1,0,14,14.8,14.8,0,0,1-2.9,5.28,12.26,12.26,0,0,1-4.62,3.29,16.09,16.09,0,0,1-6.23,1.14A16.28,16.28,0,0,1,387,667a13.61,13.61,0,0,1-2.47-1.34c.26.36.53.72.82,1A12.21,12.21,0,0,0,390,670ZM371,665a29.56,29.56,0,0,1,0-21.17,25.35,25.35,0,0,1,5.55-8.5,25.72,25.72,0,0,1,8.62-5.65,29.3,29.3,0,0,1,11.16-2.05,29,29,0,0,1,11.14,2.07,26.35,26.35,0,0,1,6.88,4.12c-.42-.49-.84-1-1.29-1.45a25.74,25.74,0,0,0-8.59-5.67,29,29,0,0,0-11.14-2.07,29.3,29.3,0,0,0-11.16,2.05,25.72,25.72,0,0,0-8.62,5.65,25.35,25.35,0,0,0-5.55,8.5A29.56,29.56,0,0,0,368,662a25.39,25.39,0,0,0,5.55,8.51,20.57,20.57,0,0,0,1.69,1.54A25.7,25.7,0,0,1,371,665Zm96.34-7.3,3.08,3.88c-.12-1-.21-2-.26-2.93S470,656.82,470,656V628.23h7.73v-3H467V653c0,.84,0,1.74.07,2.69C467.15,656.33,467.22,657,467.29,657.72Zm-21.84-10.34c0,.3,0,.58.07.87l21.67,27.41a5.91,5.91,0,0,0,1.84,1.55ZM435,628.23h6.41a10.07,10.07,0,0,1,1.33.07,3.93,3.93,0,0,1,.82.21l-1.12-1.41a10.15,10.15,0,0,0-.9-1,3.28,3.28,0,0,0-.83-.56,3.54,3.54,0,0,0-1-.27,10.07,10.07,0,0,0-1.33-.07H432v52.45h3Zm60.26,0H526v-3H492.24v52.45h3Zm12.24,22.64h14.93v-3H507.48Z" transform="translate(-76.49 -624.4)"/>
  <path class="colombia-letters-up" class="cls-1" d="M110.9,739a22.91,22.91,0,0,1-7.17-5.2,24.54,24.54,0,0,1-5.06-8.49,31.33,31.33,0,0,1-1.76-10.68,29.6,29.6,0,0,1,1.9-10.78,25,25,0,0,1,5.37-8.48,24.15,24.15,0,0,1,8.28-5.54,27.67,27.67,0,0,1,10.62-2,28,28,0,0,1,5.3.48L125.05,698c-.63-.06-1.31-.1-2-.1a13.48,13.48,0,0,0-5.52,1.12,12,12,0,0,0-4.32,3.26,15.15,15.15,0,0,0-2.81,5.25,23.49,23.49,0,0,0-1,7.11,21.69,21.69,0,0,0,1.1,7.17,15.68,15.68,0,0,0,3,5.27,14.11,14.11,0,0,0,1.16,1.16Zm90.68-25a27.87,27.87,0,0,0-2-9.93,25.25,25.25,0,0,0-5.53-8.5,25.59,25.59,0,0,0-8.58-5.67,29,29,0,0,0-11.14-2.07,29.3,29.3,0,0,0-11.16,2,25.71,25.71,0,0,0-8.63,5.65,25.37,25.37,0,0,0-5.54,8.5,29.51,29.51,0,0,0-.19,20.64l11.92-2.41c-.07-.2-.16-.4-.23-.61a24.9,24.9,0,0,1,0-14,14.83,14.83,0,0,1,2.9-5.27,12.41,12.41,0,0,1,4.64-3.31,16.14,16.14,0,0,1,6.29-1.16,15.86,15.86,0,0,1,6.22,1.16,12.37,12.37,0,0,1,4.63,3.31,14.83,14.83,0,0,1,2.9,5.27,22.75,22.75,0,0,1,1,7c0,.66,0,1.3-.07,1.92Zm11.5,6.67,12.16,7.91V688.43H213.08Zm92.2-3.64c.06-.8.1-1.6.1-2.42a28,28,0,0,0-2-10.54,25.25,25.25,0,0,0-5.53-8.5,25.59,25.59,0,0,0-8.58-5.67,31.23,31.23,0,0,0-22.31,0,25.67,25.67,0,0,0-8.62,5.65,25.22,25.22,0,0,0-5.54,8.5,29.61,29.61,0,0,0-.25,20.51l12.18-1.74c-.15-.37-.3-.75-.43-1.15a24.9,24.9,0,0,1,0-14,14.83,14.83,0,0,1,2.9-5.27,12.41,12.41,0,0,1,4.64-3.31,16.13,16.13,0,0,1,6.28-1.16,15.87,15.87,0,0,1,6.23,1.16,12.37,12.37,0,0,1,4.63,3.31,15,15,0,0,1,2.9,5.27,22.76,22.76,0,0,1,1,7,25.71,25.71,0,0,1-.34,4.23ZM339,707.61l-8.79-17.31a4.32,4.32,0,0,0-.73-1.06,2.42,2.42,0,0,0-.85-.56,3.76,3.76,0,0,0-1.06-.22c-.4,0-.86,0-1.39,0h-9.29v40.08l1.63,1.49,9.1-10v-9.33c0-.7,0-1.46-.07-2.29s-.11-1.67-.18-2.53l4.76,9.23Zm78.52,32.64-3-9a11.29,11.29,0,0,1-3.49.47h-8.57V718.63h7.93l-2.67-8.14h-5.26v-13h1l-3-9.1H390.3v52.45h21A29.54,29.54,0,0,0,417.49,740.25Zm25.34-28.86,12.24,5.2V688.43H442.83Zm53.46-23H483.83l-11.66,30.12,12.49-3,3.06-9.05c.36-.91.74-2,1.15-3.24s.79-2.6,1.15-4.06c.41,1.44.82,2.77,1.23,4s.79,2.31,1.15,3.22l2.28,6.75,10.26-2.44Z" transform="translate(-76.49 -624.4)"/>
  <path class="scaleconf-letters-up" class="cls-1" d="M112.85,638.88a4.5,4.5,0,0,1-1.13,1.3,2.54,2.54,0,0,1-1.53.43,3.7,3.7,0,0,1-1.78-.52l-2.16-1.17a18.32,18.32,0,0,0-2.76-1.17,10.91,10.91,0,0,0-3.52-.52,7.57,7.57,0,0,0-5.1,1.46,5,5,0,0,0-1.67,3.94,3.62,3.62,0,0,0,1,2.63,8.88,8.88,0,0,0,2.64,1.8c1.09.5,3.75,1.38,3.75,1.38L97.77,659.3S95,658.49,93.49,658a31.79,31.79,0,0,1-4.29-1.73,13.53,13.53,0,0,1-3.72-2.7,12.52,12.52,0,0,1-2.65-4.18,16.56,16.56,0,0,1-1-6.17A14.67,14.67,0,0,1,83,637.48a14.88,14.88,0,0,1,3.49-5A17,17,0,0,1,92.15,629a20.83,20.83,0,0,1,7.67-1.32,29,29,0,0,1,4.7.38,24.44,24.44,0,0,1,8.17,2.88,17.77,17.77,0,0,1,3.19,2.32ZM132,673.6s-3.89-5.21-5.06-8.49a31.27,31.27,0,0,1-1.76-10.67,29.61,29.61,0,0,1,1.9-10.79,24.9,24.9,0,0,1,5.37-8.47,24,24,0,0,1,8.28-5.55,27.67,27.67,0,0,1,10.62-2,29,29,0,0,1,5.56.52,27.74,27.74,0,0,1,4.88,1.44,22.37,22.37,0,0,1,4.17,2.22,22,22,0,0,1,3.39,2.81l-4.11,5.5a4.77,4.77,0,0,1-.93.92,2.43,2.43,0,0,1-1.52.42,2.71,2.71,0,0,1-1.22-.29c-.38-.19-.79-.43-1.22-.7l-1.42-.91a10.89,10.89,0,0,0-1.84-.89,15.63,15.63,0,0,0-2.49-.71,17,17,0,0,0-3.33-.28,13.47,13.47,0,0,0-5.52,1.11,12.06,12.06,0,0,0-4.32,3.26,15.1,15.1,0,0,0-2.81,5.26,23.4,23.4,0,0,0-1,7.11,21.67,21.67,0,0,0,1.1,7.16,28.71,28.71,0,0,0,3,5.27Zm74.35-45.37H193.89l-11.75,30.36,12.77-3.75,2.87-8.51c.36-.91.74-2,1.15-3.23s.79-2.61,1.15-4.07c.41,1.44.82,2.78,1.22,4s.8,2.31,1.16,3.22l1.95,5.79,10-2.94Zm28.77,30.69,12.17,6V628.23H235.11Zm58.46-21.33-2-9.36h-14.3v52.45H303l-2-9.36H289.47V658.83h8.74l-2-9h-6.77V637.59Zm26.16,9.2,11.79,3.82a20.2,20.2,0,0,1,.73-3.28,15.1,15.1,0,0,1,2.81-5.26,12.06,12.06,0,0,1,4.32-3.26,13.49,13.49,0,0,1,5.53-1.11,17.18,17.18,0,0,1,3.33.28,15.49,15.49,0,0,1,2.48.71,10.89,10.89,0,0,1,1.84.89l1.42.91c.43.27.84.51,1.22.7a2.78,2.78,0,0,0,1.23.29,2.4,2.4,0,0,0,1.51-.42,5.13,5.13,0,0,0,.94-.92l4.1-5.5a21.46,21.46,0,0,0-3.38-2.81,22.78,22.78,0,0,0-4.18-2.22,27.49,27.49,0,0,0-4.88-1.44,28.93,28.93,0,0,0-5.56-.52,27.74,27.74,0,0,0-10.62,2,24,24,0,0,0-8.28,5.55,25,25,0,0,0-5.36,8.47A25.47,25.47,0,0,0,319.73,646.79ZM421.53,665a29.45,29.45,0,0,0,0-21.13,25.38,25.38,0,0,0-5.52-8.5,25.74,25.74,0,0,0-8.59-5.67c-.66-.27-1.33-.51-2-.72L401,638.32a13,13,0,0,1,1.52.53,12.53,12.53,0,0,1,4.62,3.31,14.83,14.83,0,0,1,2.9,5.27,24.9,24.9,0,0,1,0,14,14.8,14.8,0,0,1-2.9,5.28,12.26,12.26,0,0,1-4.62,3.29,16.09,16.09,0,0,1-6.23,1.14A16.28,16.28,0,0,1,390,670a12.58,12.58,0,0,1-3.15-1.88l-4.58,9.67a25.84,25.84,0,0,0,2.85,1.37,31.21,31.21,0,0,0,22.3,0,25.29,25.29,0,0,0,8.59-5.67A25.62,25.62,0,0,0,421.53,665Zm37.66-17.54L445.42,630.1a10.15,10.15,0,0,0-.9-1,3.28,3.28,0,0,0-.83-.56,3.54,3.54,0,0,0-1-.27,10.07,10.07,0,0,0-1.33-.07H435v52.45h10.73V652.56c0-.76,0-1.59-.06-2.46s-.1-1.78-.2-2.72l10.12,12.8ZM529,637.59v-9.36H495.24v25.61l12.24-4.19V637.59Z" transform="translate(-76.49 -624.4)"/>
  <path class="colombia-letters-down" class="cls-1" d="M133.75,739.35a27.83,27.83,0,0,1-11.28,2.1,26.86,26.86,0,0,1-10.72-2c-.29-.13-.57-.28-.85-.42l3.71-10.77a12.57,12.57,0,0,0,3.25,2.1,13.25,13.25,0,0,0,5.4,1.12,25.28,25.28,0,0,0,3-.17,12.76,12.76,0,0,0,2.56-.54,10.41,10.41,0,0,0,2.23-1,13.81,13.81,0,0,0,2.12-1.61,4.37,4.37,0,0,1,.94-.59,2.35,2.35,0,0,1,1-.23,2.43,2.43,0,0,1,.87.16,2.31,2.31,0,0,1,.82.56l4.83,5.07A20.08,20.08,0,0,1,133.75,739.35Zm-7.42-41.17a15.68,15.68,0,0,1,2.49.7,11.7,11.7,0,0,1,1.84.9l1.42.9c.43.28.84.51,1.22.71a2.71,2.71,0,0,0,1.23.28,2.42,2.42,0,0,0,1.51-.41,5.07,5.07,0,0,0,.93-.92l4.11-5.51a22.55,22.55,0,0,0-3.39-2.8,21.79,21.79,0,0,0-4.17-2.22,27.74,27.74,0,0,0-4.88-1.44l-.26,0L125.05,698C125.5,698,125.94,698.1,126.33,698.18Zm62.74,18.37a21.08,21.08,0,0,1-.94,5.12,14.8,14.8,0,0,1-2.9,5.28,12.32,12.32,0,0,1-4.63,3.29,16,16,0,0,1-6.22,1.13,16.33,16.33,0,0,1-6.29-1.13,12.36,12.36,0,0,1-4.64-3.29,14.7,14.7,0,0,1-2.67-4.67l-11.92,2.41c.06.18.12.35.19.53a25,25,0,0,0,14.17,14.18,31.35,31.35,0,0,0,22.3,0,25.06,25.06,0,0,0,14.11-14.18,28.17,28.17,0,0,0,2-10.59c0-.2,0-.4,0-.61Zm36.17,12.05-12.16-7.91v20.19h31.6v-9.72H225.24Zm67.34-9.74a19.9,19.9,0,0,1-.66,2.81A15,15,0,0,1,289,727a12.32,12.32,0,0,1-4.63,3.29,16.06,16.06,0,0,1-6.23,1.13,16.32,16.32,0,0,1-6.28-1.13,12.36,12.36,0,0,1-4.64-3.29,14.25,14.25,0,0,1-2.47-4.13l-12.18,1.74c.09.22.16.44.25.66A25,25,0,0,0,267,739.4a31.37,31.37,0,0,0,22.31,0,25.06,25.06,0,0,0,14.11-14.18,27.65,27.65,0,0,0,1.86-8.17Zm74-30.43c-.52,0-1,0-1.38,0a3.68,3.68,0,0,0-1.06.22,2.25,2.25,0,0,0-.85.56,4.32,4.32,0,0,0-.74,1.06l-13.46,26.49c-.51.92-1,1.88-1.42,2.88s-.87,2-1.28,3.1c-.41-1-.84-2-1.28-3s-.91-1.94-1.39-2.85L339,707.61l-6.87,7.51,9.17,17.8a4.58,4.58,0,0,0,1.75,1.91,4.83,4.83,0,0,0,2.5.65h1.66a4.85,4.85,0,0,0,2.5-.65,4.56,4.56,0,0,0,1.74-1.91l13.94-27c-.1.84-.17,1.67-.2,2.48s-.06,1.57-.06,2.27v30.17h10.73V688.43ZM318.49,730l-1.63-1.49v12.37h10.73V720Zm109.94-12.2c-1.66-1.87-4.21-3.23-7.67-4.07a17.39,17.39,0,0,0,4.07-2.05,12.2,12.2,0,0,0,2.77-2.61,9.7,9.7,0,0,0,1.58-3.06,11.34,11.34,0,0,0,.51-3.4,15.12,15.12,0,0,0-1.1-5.87,10.72,10.72,0,0,0-3.51-4.46,17.64,17.64,0,0,0-6.23-2.85,36.8,36.8,0,0,0-9.25-1h-9.11l3,9.1h6.12a16.69,16.69,0,0,1,3.55.33,5.91,5.91,0,0,1,2.46,1.08,4.41,4.41,0,0,1,1.44,2,8.89,8.89,0,0,1,.47,3.11,7.54,7.54,0,0,1-.59,3.17,4.7,4.7,0,0,1-1.73,2,7.77,7.77,0,0,1-2.76,1,21.08,21.08,0,0,1-3.63.28h-1.08l2.67,8.14H411a14,14,0,0,1,3.81.43,6.31,6.31,0,0,1,2.43,1.23,4.15,4.15,0,0,1,1.3,1.94,8.34,8.34,0,0,1,.38,2.59,9.57,9.57,0,0,1-.33,2.49,5.32,5.32,0,0,1-1.18,2.19,6.3,6.3,0,0,1-2.4,1.59l-.45.14,3,9c.74-.17,1.46-.35,2.15-.58a17.94,17.94,0,0,0,6.18-3.35,14.24,14.24,0,0,0,3.8-5,15,15,0,0,0,1.29-6.23A10.6,10.6,0,0,0,428.43,717.8Zm14.4-6.41v29.49h12.24V716.59Zm62.11-.62-10.26,2.44,2.58,7.62H482.89l1.77-5.25-12.49,3-8.64,22.33H473a4,4,0,0,0,2.54-.81,4.39,4.39,0,0,0,1.42-1.82l3.1-9.14H500l3.1,9.14a4.58,4.58,0,0,0,1.47,1.89,4.14,4.14,0,0,0,2.56.74h9.43Z" transform="translate(-76.49 -624.4)"/>
  <path class="scaleconf-letter-down" class="cls-1" d="M100.89,648.5s3.3,1.1,4,1.35a38.39,38.39,0,0,1,4.3,1.81,14.47,14.47,0,0,1,3.74,2.67,12.25,12.25,0,0,1,2.65,3.94,14,14,0,0,1,1,5.6,18.23,18.23,0,0,1-1.26,6.8,15.91,15.91,0,0,1-3.66,5.53,16.92,16.92,0,0,1-5.9,3.71,22.09,22.09,0,0,1-8,1.35,25.23,25.23,0,0,1-5-.51,29.13,29.13,0,0,1-4.91-1.42,28.06,28.06,0,0,1-4.47-2.18,18.62,18.62,0,0,1-3.63-2.81l3.6-5.68a3.52,3.52,0,0,1,1.13-1,2.93,2.93,0,0,1,1.53-.41,4.06,4.06,0,0,1,2.18.68c.73.46,1.56,1,2.48,1.51a20.17,20.17,0,0,0,3.19,1.51,11.83,11.83,0,0,0,4.25.69,8.08,8.08,0,0,0,5.14-1.46,5.53,5.53,0,0,0,1.84-4.63,4.35,4.35,0,0,0-1-3,7.69,7.69,0,0,0-2.64-1.91c-1.1-.51-3.73-1.33-3.73-1.33Zm62.54,18.61a2.43,2.43,0,0,1,.87.16,2.34,2.34,0,0,1,.83.56L170,672.9a20,20,0,0,1-7.94,6.25,27.83,27.83,0,0,1-11.28,2.11,26.86,26.86,0,0,1-10.72-2c-3.15-1.35-8-5.62-8-5.62l9.72-6.73a23.43,23.43,0,0,0,4.41,3.26,13.09,13.09,0,0,0,5.4,1.12,25.28,25.28,0,0,0,3-.17,13.49,13.49,0,0,0,2.56-.53,11,11,0,0,0,2.23-1,14.38,14.38,0,0,0,2.12-1.6,4.41,4.41,0,0,1,.94-.6A2.5,2.5,0,0,1,163.43,667.11Zm51-18-10,2.94,2.91,8.58H193l2-5.79-12.77,3.75-8.56,22.09h9.51a4,4,0,0,0,2.54-.81,4.47,4.47,0,0,0,1.42-1.82l3.09-9.14h20l3.09,9.14a4.69,4.69,0,0,0,1.48,1.89,4.14,4.14,0,0,0,2.56.74h9.43Zm32.85,15.81-12.17-6v21.76h31.61V671H247.28Zm44.25-36.69,2,9.36H311v-9.36ZM306,649.83h-9.72l2,9H306Zm-3,30.85h8v-9.36H300.93Zm55-13.41a2.42,2.42,0,0,0-.86-.16,2.58,2.58,0,0,0-1.05.23,4.35,4.35,0,0,0-.93.6,14.44,14.44,0,0,1-2.13,1.6,10.72,10.72,0,0,1-2.23,1,13.17,13.17,0,0,1-2.56.53,25.28,25.28,0,0,1-3,.17,13.09,13.09,0,0,1-5.4-1.12,12.61,12.61,0,0,1-4.41-3.26,15.58,15.58,0,0,1-3-5.27,21.67,21.67,0,0,1-1.1-7.16,27.34,27.34,0,0,1,.26-3.83l-11.79-3.82a30.9,30.9,0,0,0-.92,7.65,31.51,31.51,0,0,0,1.76,10.67,24.6,24.6,0,0,0,5.06,8.49,23.09,23.09,0,0,0,8,5.62,26.78,26.78,0,0,0,10.71,2,27.83,27.83,0,0,0,11.28-2.11,20,20,0,0,0,7.94-6.25l-4.82-5.07A2.34,2.34,0,0,0,357.94,667.27Zm28.91.89a12.47,12.47,0,0,1-1.5-1.41,15,15,0,0,1-2.9-5.28,25.14,25.14,0,0,1,0-14,15,15,0,0,1,2.9-5.27,12.47,12.47,0,0,1,4.65-3.31,16.09,16.09,0,0,1,6.28-1.15,17.15,17.15,0,0,1,4.71.62L405.4,629a29.65,29.65,0,0,0-9.12-1.35,29.3,29.3,0,0,0-11.16,2.05,25.72,25.72,0,0,0-8.62,5.65,25.35,25.35,0,0,0-5.55,8.5A29.56,29.56,0,0,0,371,665a25.39,25.39,0,0,0,5.55,8.51,24.66,24.66,0,0,0,5.77,4.3ZM470,628.23V656c0,.84,0,1.74.07,2.69s.14,1.92.26,2.93l-11.18-14.12-3.62,12.7,14.62,18.48a5.64,5.64,0,0,0,1.89,1.57,5.49,5.49,0,0,0,2.36.45h6.33V628.23Zm37.44,21.42-12.24,4.19v26.84h12.24V660.27h17.93v-9.4H507.48Z" transform="translate(-76.49 -624.4)"/>
</svg>
