<svg id="svg-medellin" class="svg-medellin" xmlns="http://www.w3.org/2000/svg" viewBox="0 0 438.0 90.50">
  <animate xlink:href="#svg-medellin" attributeName="fill" from="#1d2152" to="#ffffff" dur="10s" begin="2s" fill="freeze" />
  <g>
    <path d="M278.7,103.07c.27-2.29,2.06-1.3,3.16-1.29,15.52.16,31.11,1.35,46.55.31,10.83-.73,21.57-.47,32.35-.54s21.46.26,32.19.42c.47.31.62.62.46.92s-.32.45-.47.45c-1.88,1.57-4.1,1.33-6.32,1.3-18.76-.29-37.53-.41-56.28-.91-5.85-.15-11.4,1.91-17.31,1.32s-11.89-.28-17.84-.36C289.84,102.68,284.06,105,278.7,103.07Z" transform="translate(0.95 -14.98)"/>
    <path d="M65.93,64.22l1.31.56-1.52,1.8,4.2.71-.44,30.25,15-1.79.22-15.18,5.86-3.74C92.75,78,92.45,83,97.19,80.69l-.12,8.18c3.49,1.57,5.91-.1,8.65-1.46l.1-7.36,2.62,0,6,5.45c1.61-1.42,2.89-3.66,5.72-2.41L122,87.05c.38.31.5.62.37.92s-.26.46-.39.45c-2.7-2.23-6-1.21-9-1.55l-2.55-2.62-1.55,1.16-1.7-3.77-.54,9-12.33-.18,1.36-1.75c-.46-1.79-1-3.77-1.52-5.84L89.5,81.54l-3,1.26-.23,15.72c-3,.71-5.93.23-8.79.26s-5.89-.07-9.26-.12l.44-30.09L63,68.09l1.51-2.52C64.23,64.33,64.48,63.66,65.93,64.22Z" transform="translate(0.95 -14.98)"/>
    <path d="M138.12,21.22l5.5.07c.8,2.69-2.15,1.52-2.79,2.72l-.05,3.57,2.65.94c.33,2.52-.64,5.55,1.35,7.93-1.76.8-2.05,2.61-2.81,4.09-.22,15.08-.42,30.16-.68,45.23,0,2,.75,4.29-2.48,5.38l-.9-2.48a8.9,8.9,0,0,0,.12-6.88c-.57-1.35-1.23-3.53-.59-4.38,2-2.7,1.25-5.62,1.32-8.42.28-12.08.39-24.16.57-36.78-3.92,2.4-5.8,5.38-5.64,9.59-.47.63-.93.62-1.38,0l.09-6.22a29.17,29.17,0,0,0,6.18-8.36C139.92,24.58,138.93,23.14,138.12,21.22Z" transform="translate(0.95 -14.98)"/>
    <path d="M35.29,88.55c.37-.45.72-1.28,1.11-1.3,2.24-.09,4.49,0,7,0l-.13,9.3,11.21.16.56-39L57.73,60a2.49,2.49,0,0,0,0,1.38c-.57,12.74.83,25.59-2.32,38.21l-14.72-.21C42,95.28,42,95.28,40.78,90,39.31,88.18,36.77,90.35,35.29,88.55Z" transform="translate(0.95 -14.98)"/>
    <path d="M148.23,83.3l-.21,15,2.5,0,.1-6.47a41.47,41.47,0,0,0,5.36-.25A26.61,26.61,0,0,0,160.33,90l-.11,7.77c2.35,1.85,3.92.73,5.71-1.22l.47-32.3c2.43-.55,2.43,1.26,2.71,2.79-2.22,3.46-1.71,7.15-1,10.88.24,1.23,1,2.79.5,3.68-2.31,4.31-.77,8.88-1.22,13.29-.08.84,1,1.8,1.54,2.72l-2.21,2.29-9.12-.13.1-6.6-4-.06-.09,6.14-7.59,2.12-2.21-2.51L146.66,97l.14-9.55C146.33,85.71,144.8,83.64,148.23,83.3Z" transform="translate(0.95 -14.98)"/>
    <path d="M132.31,41.78l1.38,0c-.25,17.07-.46,34.15-.8,51.23,0,1.25,1.31,3.36-1.37,3.79-1.58-1-.39-2.92-1.32-4.15l.46-31.58c.05-3.43-.08-6.87.2-10.29C131.11,47.77,131.81,44.78,132.31,41.78Z" transform="translate(0.95 -14.98)"/>
    <path d="M147.93,103.94c.27-2.28,2-1.3,3.14-1.29,13.41.13,26.82.34,40.68.54.11-1.2.22-2.43.39-4.26-3.31.45-6.37-.82-9.29,1.15l-1.43-1.47c.4-1.42.73-2.61,1.06-3.81.46-.64.92-.63,1.37,0l0,2.5,9.61.14-.08,5.64,4.14.06,0-2.64a2.65,2.65,0,0,1,2.54.23c1.36.84,3,.72,4.43,1.21,1.43,1.62,5-.78,5.36,2.87-14.19-.2-28.4-.11-42.57-.75-6.58-.29-12.86,1.85-19.38,1.23-.49-.31-.65-.62-.48-.92S147.77,103.94,147.93,103.94Z" transform="translate(0.95 -14.98)"/>
    <path d="M269.41,79.54c.18,1.69-.83,3.68,2.45,5.21l-9.43-.13.11-7.81-3.88-.06-.11,7.45c-3.52,1.63-6.46.21-9.84-1.27l.11-7.82c.81-.73.28-2.16,1.42-2.73.45.37,1.29.72,1.3,1.1.08,2.71,0,5.42-.06,8.26l2.57.46c.14-2.31.26-4.48.4-6.82l9.38.14-.12,8.15c3.17-.21,4.4-1.5,4.32-4.15A.84.84,0,0,1,269.41,79.54Z" transform="translate(0.95 -14.98)"/>
    <path d="M147.93,103.94l0,1.37-67.42-1c-2.5.5-5.25,2.15-6.86-1.47Z" transform="translate(0.95 -14.98)"/>
    <path d="M288.61,83.94l-2.27-1.89c3.19-1.24,5.35-1.51,7,.36,2.41,4-1.19,7.09-.74,10.56l2,2,11.31.16,4.43-5.47c2.47.17,1.34,3.25,2.9,4.25a1.55,1.55,0,0,1-1.39,1.36l-2.33-1.13-4.22,4.09-3.95-1.38c-2.73,2.17-6.22.35-10.06,1.13-.19-4,.06-7.78,0-11.56,0-1,.56-2.43-1.32-2.48A2.59,2.59,0,0,0,288.61,83.94Z" transform="translate(0.95 -14.98)"/>
    <path d="M278.7,103.07c4.93.07,9.87.1,14.79.27.59,0,1.14.88,1.7,1.35l-70.18-1c-.34-.31-.45-.62-.33-.92s.24-.45.35-.45Z" transform="translate(0.95 -14.98)"/>
    <path d="M52.68,28.24c-.86,2.65-3,1.19-4.51,1.2-1.63,0-3.23-1-4.89-1.31s-3.69.63-4.92-1.36c-3.47.42-6.1-1.7-9-3s-6.11-1.59-9.13-2.72C15.62,19.36,11,16.72,5.72,17.86c-.24.06-.69-.86-1-1.32L15,16.69l-.21.58,22.29,7.82c4.26-.35,9.76,2.69,15.65,1.78.49.31.65.62.48.92S52.85,28.24,52.68,28.24Z" transform="translate(0.95 -14.98)"/>
    <path d="M73.63,102.87c.54.46,1,1.26,1.63,1.33a47.87,47.87,0,0,0,5.23.14c-.37.46-.74,1.31-1.11,1.3q-22.3-.21-44.61-.64c-.37,0-.71-.87-1.07-1.33.09-.84,1-.85,1.4-1.36,8,.58,16,1.41,24,1.63C64,104.07,68.79,103.26,73.63,102.87Z" transform="translate(0.95 -14.98)"/>
    <path d="M198.89,101.92l-1.36-1.4,2.88-5.4c-.22-1.68-3-3.6-.32-6.08.71-.68.38-2.54.4-3.87.13-6.79.21-13.59.31-20.38,1-.91,2.29-.61,3.49-.6l.64.66-.08,5.5c-1.47,2-.25,4.46-1.26,6.53-.57,6.52-.24,13.05-.53,19.57C202.94,99.21,202.91,102.11,198.89,101.92Z" transform="translate(0.95 -14.98)"/>
    <path d="M183.85,94.82l-1.37,0c-.7-4.35-1.56-8.66-1.25-13.15s.19-9.12.25-13.39l-3.8-5.19-4.36-1.43c-.47.58-.93.57-1.38,0,.88-2.73,2.72-3.25,5.2-2.38l.49,2,6.22,1.41a38.86,38.86,0,0,0-.95,5.23c-.17,5-.3,10.09-.19,15.13,0,1.89,1,3.74,1.18,5.65A55.43,55.43,0,0,1,183.85,94.82Z" transform="translate(0.95 -14.98)"/>
    <path d="M187.52,31.56c1.65-2.32,4.65-1.25,6.47-3.56l3.92,3.69,3.52.06c3.34,2.75,6.41,5.25,9.44,7.8,3.57,3,7.36,5.31,12.3,4.94,1.8-.14,3.63,0,5.45,0,0,.23,0,.65,0,.66-7,1.68-13.41.84-19-4.14-3-2.65-6.11-5.11-9.45-7.88C196.18,33.2,192.06,30.62,187.52,31.56Z" transform="translate(0.95 -14.98)"/>
    <path d="M95.38,26.1a58.65,58.65,0,0,1,5.49-4c3.21-1.85,6.53-3.6,10-2.62,4.24-2.57,8-3.76,12.62-1.61,2.07,1,4.88.29,7.34.55.63.06,1.17.87,1.75,1.34.49.31.65.62.48.92s-.33.46-.5.46c-2.08-.49-4.15-1.32-6.25-1.38-2.26-.07-4.2-.88-6.28-1.39-1.67-.41-3.8.45-5.54,1.18-3,1.25-5.84,2.59-9.18,2.65-.92,0-1.8,1.07-2.73,1.6-1.84,1.06-3.54,2.51-5.88,2.32A.79.79,0,0,1,95.38,26.1Z" transform="translate(0.95 -14.98)"/>
    <path d="M148.23,83.3c-2.66.6-.89,2.76-1.43,4.11-1.85,0-1.34-1.44-1.33-2.44.07-7,.19-14,.29-21,1.89-3-.32-6.62,1.51-9.61,1.86,0,1.34,1.45,1.33,2.44C148.5,65.65,148.36,74.47,148.23,83.3Z" transform="translate(0.95 -14.98)"/>
    <path d="M357.44,83.56c2.11-.32,4.1-.2,6.36-1.06,7.46-2.82,13.4-4.39,22.8-1.29a10.17,10.17,0,0,1,2.48.72c-6.67,1.06-13.37.2-20,.53C363.36,85.66,361.24,85.86,357.44,83.56Z" transform="translate(0.95 -14.98)"/>
    <path d="M228.62,44.54a10.28,10.28,0,0,1,8.95-5.45,21.88,21.88,0,0,0,6.05-1.7c4.64-1.78,9.09-1.39,12.82,1.76,1.74,1.47,4.78,1.55,5.23,4.49a37.32,37.32,0,0,1-5.29-2A58.32,58.32,0,0,1,251,37.73c-.92.54-1.83,1.53-2.73,1.51-6.65-.11-12.84,1.17-18.26,5.29C229.68,44.75,229.07,44.55,228.62,44.54Z" transform="translate(0.95 -14.98)"/>
    <path d="M367.23,72.69c2.21-3.13,6.54-2.7,9-5.32,4.69-.18,9.24-.07,13.44,2.45,1,.62,2.59.44,3.9.48,3.59.1,7.17.12,10.74.44a33.28,33.28,0,0,1-18-.53c-6-1.92-6-1.92-12.73,1.06l-6.37,2.8c-.5-.32-.66-.62-.49-.93S367.06,72.69,367.23,72.69Z" transform="translate(0.95 -14.98)"/>
    <path d="M140.83,24c.58-.45,1.19-.87,1.72-1.37a11,11,0,0,0,1.07-1.35c2.94,1.42,2.94,1.42,8.92,1.51l6.62,7c2.8.1,6-.36,7.7,2.88-.09.84-1,.85-1.4,1.36-4.85-2-9.91-3.61-12.35-7.94Z" transform="translate(0.95 -14.98)"/>
    <path d="M225,102.3l0,1.37c-.57.45-1.15,1.29-1.73,1.29-4.47.05-8.95-.06-13.42-.13-.54-.47-1.05-1.27-1.63-1.34a50.66,50.66,0,0,0-5.23-.13c-1.53-1.64-.59-3.46-.41-5.23a1.2,1.2,0,0,1,1.86-.26l1.91,4.16Z" transform="translate(0.95 -14.98)"/>
    <path d="M392.94,103.34V102c2.11-.31,4.5,1,6.31-1.24.26-.33,1.41-.26,2,0,5.5,2.77,11,1.53,16.54.22a5.63,5.63,0,0,1,1.36,0c.49.31.65.62.48.92s-.33.45-.5.45c-.35.46-.67,1.26-1.07,1.31-2.32.26-4.79-.66-6.91,1.26a2.93,2.93,0,0,1-2.6,0C403.5,102.35,398.12,103.87,392.94,103.34Z" transform="translate(0.95 -14.98)"/>
    <path d="M410.38,38.9l2,0c1,1.8,1.58,3.52,4.08,4.42,3.51,1.25,6.38,3.76,10.45,4.32a9.47,9.47,0,0,1,6.65,4c-.09.84-1,.84-1.4,1.35-5.07-2.36-10.09-4.87-15.24-7A11.11,11.11,0,0,1,410.38,38.9Z" transform="translate(0.95 -14.98)"/>
    <path d="M338,94.29l-3.31,3.63c-.53-1.59-.78-2.36-1.05-3.16-.24,0-.62-.21-.87-.1-2.61,1.14-5,4.07-8,.86l-6.06,1.74.05-3.25,2.18,1.06,4.4-2.3,5,1.86,1.84-3.53C334.76,92.46,335.49,95,338,94.29Z" transform="translate(0.95 -14.98)"/>
    <path d="M35.1,102.31l-1.4,1.36c-10,0-20,0-30,0-.33,0-.65.6-1,1l-1.8-2.09s.07-.34.12-.34Q18.07,102.23,35.1,102.31Z" transform="translate(0.95 -14.98)"/>
    <path d="M284.32,94.89c-.36.46-.7,1.29-1.08,1.3-2.23.1-4.47,0-7.41,0,.47-1.69.93-3,1.18-4.36s1.09-3.7.41-4.43c-2.28-2.49-.62-5.21-1.13-7.72a1.88,1.88,0,0,1,2.75,0c-.06,4-.17,8-.11,12,0,.58.84,1.15,1.29,1.73C281.27,94.84,283.3,93.44,284.32,94.89Z" transform="translate(0.95 -14.98)"/>
    <path d="M147.27,54.38c0,2.65,0,5.31-.17,7.95,0,.58-.88,1.11-1.34,1.66l.35-24.08-2-2L142,40.54l.06-4.13,2.75,0,2.72,1.87Z" transform="translate(0.95 -14.98)"/>
    <path d="M302.85,51.12a39.31,39.31,0,0,1-10.75-4.75c-2.11-1.41-4.29-2.78-7-2.39-1.06-1.36-3-.12-4.11-1.44.37-.45.72-1.28,1.1-1.29,2.05-.11,4.11,0,5.43,0,4.42,2.57,8.18,5,12.21,6.94C301.23,48.93,302.38,49.49,302.85,51.12Z" transform="translate(0.95 -14.98)"/>
    <path d="M341.1,70.94c1.16.47,2.3,1,3.49,1.41,1.4.49,2.62-1.87,4.41,0,.74.77,2.88.17,4.54.19-.16,1.23-.25,1.84-.36,2.68l-2.49-1.37,0,2.78c-2.29-1.24-4.48-2.49-7.18-.62-.94.65-2.53.34-3.82.46-1.07-1.85-.16-3.4.74-5Z" transform="translate(0.95 -14.98)"/>
    <path d="M203.57,63.45c2.22-3,5.17-.73,7.75-1.11,2.14,2.88,4.23.45,6.66-.15,1.69.5,3.72.87,4.84,2.91-.47.68-.93.68-1.38,0l-1.79.81c-4.69-1.84-9.78-.56-14.72-1C204.54,64.32,203.64,64.29,203.57,63.45Z" transform="translate(0.95 -14.98)"/>
    <path d="M221.44,65.08l1.38,0-.38,26.15c.44.47,1.28.56,1.36,1.39L221,94.75Z" transform="translate(0.95 -14.98)"/>
    <path d="M395.14,45.57,404,34.73c3.61-.39,5.12,1.7,6.34,4.17-2.53.75-3.23-1.87-5.27-2.85l-3.44,6.27C399.16,42.22,398.3,46.31,395.14,45.57Z" transform="translate(0.95 -14.98)"/>
    <path d="M350.4,94.47l-6.69,2.2-2.26-2.33-3.44,0c1.05-2,2.34-3.71,5.09-4.31.29,1.61.56,3,1,5.23l6.4-5.14Z" transform="translate(0.95 -14.98)"/>
    <path d="M204.45,97.87l-1.37,0a73.89,73.89,0,0,1,.31-22,24.92,24.92,0,0,1,.12-3.87c.11-.6.87-1.08,1.34-1.61Z" transform="translate(0.95 -14.98)"/>
    <path d="M326.65,70.06c-3.49.47-6.17.47-9-.58-2.19-.82-5.22.64-8.23-.06l6.14-2.74,8.5,1.64-.66.46Z" transform="translate(0.95 -14.98)"/>
    <path d="M281,42.54c1.35.55,3.5-1.22,4.11,1.44-3.27-.26-6.51.23-9.78-1.37-2.6-1.27-5.39,1-8,1.82-2.16.67-4,1.37-5.59-.79,1.12,0,2.52.48,3.33,0C270.18,40.45,275.47,40.41,281,42.54Z" transform="translate(0.95 -14.98)"/>
    <path d="M87.12,26,82,25.91l-2.62-4.44L75.15,22.7l-1.07-1L69.27,23,71,20.53c3-1.05,6.22,1.24,8.8-1.66L83,23.8C84.44,25.3,86.85,23.34,87.12,26Z" transform="translate(0.95 -14.98)"/>
    <path d="M334.16,75c-3.36-.2-5.86-2.08-8.2-4.25,3-.45,5.23,1.4,7.59,2.69l6.93-6.3c.31,1.93.47,2.88.62,3.83C339,72.58,338.28,76.74,334.16,75Z" transform="translate(0.95 -14.98)"/>
    <path d="M250.24,72.38c-.22,1,.64,2.65-1.42,2.73l-.63-1.73-1,2.45-5.25,1.94a1.88,1.88,0,0,1-2.75,0l0-2.48,5.19-.39.48-1.92c1.54-.54,3.23-1.14,4.94-1.7.09,0,.36.28.43.47A1.88,1.88,0,0,1,250.24,72.38Z" transform="translate(0.95 -14.98)"/>
    <path d="M284.32,94.89c-1.34-.54-3.5,1.23-4.1-1.43l2.44,0c.18-2,.36-4.12.56-6.47,1.76-.79,4.75,0,5.39-3.08l.94-1.12L290,84l-.05,3.44-5.54,2Z" transform="translate(0.95 -14.98)"/>
    <path d="M165.46,34l1.4-1.36,20.66-1.08c-.16.38-.31,1.09-.49,1.1C179.84,33.07,172.73,34.91,165.46,34Z" transform="translate(0.95 -14.98)"/>
    <path d="M239.15,77.73l2.75,0L240.71,82c1.49,2.37,1.35,5.73.72,9.11,0,.2-.72.29-1.1.44C240,91,239,91,239,90.11Z" transform="translate(0.95 -14.98)"/>
    <path d="M345.39,60l-2.59,2L344,64.1l-9-2.24,3.56-3.35a5.12,5.12,0,0,0,6.88.1c.49.32.65.62.48.93S345.55,60,345.39,60Z" transform="translate(0.95 -14.98)"/>
    <path d="M130.2,92.67c2.65.68.82,2.79,1.32,4.15l-9.63-.14.12-8.26,0-1.37c.45.34,1.28.67,1.3,1,.09,2.2,0,4.4,0,6.92l5.26.08Z" transform="translate(0.95 -14.98)"/>
    <path d="M279,79.68l-2.75,0c-.84-2.46-2.45-1.44-4-.9-.95.33-1.93.54-2.9.8l-1.38,0,0-2c.33-.24.67-.7,1-.7,3.74,0,7.47.08,12.25.15Z" transform="translate(0.95 -14.98)"/>
    <path d="M335.79,57.1c-1.3-.18-3,.11-3.82-.62-2.76-2.56-6.08-2.24-9.42-2.33-.63-.95-1.22-1.86-1.81-2.77l9.27,2C331.2,55.11,334.59,54.52,335.79,57.1Z" transform="translate(0.95 -14.98)"/>
    <path d="M356.44,57.4c2.54-2.25,5.18-4.41,7.6-6.79a3.8,3.8,0,0,1,3.52-1.31c-3,4-6.29,7.65-11.14,9.47-.5-.31-.66-.62-.49-.92S356.27,57.39,356.44,57.4Z" transform="translate(0.95 -14.98)"/>
    <path d="M35.29,88.55l8.23.12L40.78,90,37.17,90l-1,2.74-2.41,0-2.19,0-1.05,2.93-2.19-4.09,6.89-.38Z" transform="translate(0.95 -14.98)"/>
    <path d="M239,90.11l1.36,1.4c-5.58-.57-10.92,2.23-16.53,1.13l-1.36-1.39C228.05,92.34,233.4,89.54,239,90.11Z" transform="translate(0.95 -14.98)"/>
    <path d="M302.85,51.12c4.3-.22,8.63.77,12.93-1,1.07-.45,4-1.7,5,1.27-5.44-.13-10.71,2.24-16.19,1.09C303.91,52.34,303.41,51.58,302.85,51.12Z" transform="translate(0.95 -14.98)"/>
    <path d="M428.75,101.11c1.73.09,3.65-.5,4.73,1.18l3.06-1.4c.25,1,.4,1.67.52,2.22-.22.26-.38.58-.51.58-3.53-.17-7.05-.37-10.58-.59,0,0,0-.43,0-.66C426.66,101.48,428.06,102,428.75,101.11Z" transform="translate(0.95 -14.98)"/>
    <path d="M334.16,75l2,0c1-2.08,1.73-4.56,4.9-4.06a7.37,7.37,0,0,1-1.45,5.48,23.83,23.83,0,0,1-3.88-.12C335.17,76.2,334.69,75.43,334.16,75Z" transform="translate(0.95 -14.98)"/>
    <path d="M171.94,61.62l1.38,0-4.21,5.44c-.45-.58-.86-1.19-1.36-1.72a11.75,11.75,0,0,0-1.35-1.07C167.21,61.26,169.6,61.47,171.94,61.62Z" transform="translate(0.95 -14.98)"/>
    <path d="M65.93,64.22l-1.4,1.35-4.13-.06.06-4.12a2.59,2.59,0,0,0,0-1.38l2.07-2.58.82,4.7Z" transform="translate(0.95 -14.98)"/>
    <path d="M350.77,68.32l4.65.07,4.93,4.2q.73.47.48.93c-.17.3-.34.45-.5.45C357.2,72,353.38,71.19,350.77,68.32Z" transform="translate(0.95 -14.98)"/>
    <path d="M367.56,49.3c.82-2.65,3.52-1.65,4.31-1.15,2.19,1.39,5.16,1.59,6.66,4.06-2.32.64-4.48-.63-6-1.65A8.84,8.84,0,0,0,367.56,49.3Z" transform="translate(0.95 -14.98)"/>
    <path d="M388.18,51l-5.31,4.53-4.34-3.29a43,43,0,0,0,5.44,0A23.3,23.3,0,0,0,388.18,51Z" transform="translate(0.95 -14.98)"/>
    <path d="M311.85,95.29l1.39-1.36,5.06-3.35c.2,1.55.32,2.49.45,3.43-2.64-.82-3.41,2.06-5.78,2.91Z" transform="translate(0.95 -14.98)"/>
    <path d="M395.14,45.57c.43,3-2.19,3.82-3.6,5.45L388.18,51C389.54,47.93,393,47.57,395.14,45.57Z" transform="translate(0.95 -14.98)"/>
    <path d="M95.38,26.1l1.37,0c-.57.45-1.08,1.14-1.73,1.31-1.81.47-3.67.72-6,1.15L87.12,26Z" transform="translate(0.95 -14.98)"/>
    <path d="M52.68,28.24l0-1.37a44.9,44.9,0,0,0,5.44,0,24.13,24.13,0,0,0,4.21-1.26L60.5,28.35Z" transform="translate(0.95 -14.98)"/>
    <path d="M428.75,101.11c-.14,2-1.72,1.14-2.77,1.33l-6.88-.1,0-1.37Z" transform="translate(0.95 -14.98)"/>
    <path d="M5.07,16.67c-2.92-1-3.69,1.61-5.37,2.43-1.67-2,.28-3,1.37-3.64A2.63,2.63,0,0,1,5.07,16.67Z" transform="translate(0.95 -14.98)"/>
    <path d="M69.27,23c-1.15,3.9-4.37,2.4-6.92,2.65,0-.22,0-.61,0-.63C64.66,24.31,67,23.64,69.27,23Z" transform="translate(0.95 -14.98)"/>
    <path d="M356.44,57.4l0,1.37-6.88-.1c.55-.45,1.08-1.23,1.67-1.29A50.71,50.71,0,0,1,356.44,57.4Z" transform="translate(0.95 -14.98)"/>
    <ellipse cx="363.78" cy="73.33" rx="0.97" ry="4.87" transform="translate(286.16 421.04) rotate(-89.17)"/>
    <path d="M354.72,80.77c-3.08-.33-3.82-1.1-4.07-4.19Z" transform="translate(0.95 -14.98)"/>
    <path d="M60.48,60l1.13.94-1.15.44-2.75,0-1.13-.94L57.73,60Z" transform="translate(0.95 -14.98)"/>
    <path d="M349.87,94.8c2,.49,3.88,1.11,2.69,4.28C351.46,97.33,350.66,96.07,349.87,94.8Z" transform="translate(0.95 -14.98)"/>
    <path d="M132.61,21.14l0-1.38a25,25,0,0,1,3.88.12c.59.1,1.07.87,1.61,1.34Z" transform="translate(0.95 -14.98)"/>
    <path d="M345.39,60l0-1.38,4.13.06C348.85,61.31,346.75,59.48,345.39,60Z" transform="translate(0.95 -14.98)"/>
    <path d="M344,64.1c1.35.54,3.5-1.23,4.11,1.43C346.71,65,344.56,66.76,344,64.1Z" transform="translate(0.95 -14.98)"/>
    <path d="M203.57,63.45l1.36,1.4-4.13-.06C201,62.73,202.53,63.64,203.57,63.45Z" transform="translate(0.95 -14.98)"/>
    <path d="M335.79,57.1c1,.22,2.65-.65,2.74,1.41C337.49,58.29,335.88,59.16,335.79,57.1Z" transform="translate(0.95 -14.98)"/>
    <path d="M356.08,82.16l1.35,1.4Z" transform="translate(0.95 -14.98)"/>
    <path d="M356.08,82.16l-1.36-1.39Z" transform="translate(0.95 -14.98)"/>
    <path d="M349.42,66.93l-1.36-1.4Z" transform="translate(0.95 -14.98)"/>
    <path d="M350.77,68.32l-1.35-1.39Z" transform="translate(0.95 -14.98)"/>
    <path d="M203.39,75.83l-.31,22-.08,5.51c-1.35-.55-3.5,1.22-4.11-1.44l2.78-1.81c.1-7.34.19-14.6.33-21.86C202,77.26,201.52,75.82,203.39,75.83Z" transform="translate(0.95 -14.98)"/>
  </g>
</svg>
