<svg xmlns="http://www.w3.org/2000/svg" viewBox="1333.72 1013.386 179.827 140.669">
  <defs>
    <style>
      .cls-1 {
        fill: #57fea7;
      }

      .cls-2 {
        fill: none;
        stroke: #1d2055;
        stroke-miterlimit: 10;
        stroke-width: 4px;
      }
    </style>
  </defs>
  <g id="Group_19" data-name="Group 19" transform="translate(1399)">
    <path id="Path_51" data-name="Path 51" class="cls-1" d="M.585,48.334l26.673-46.2a4.243,4.243,0,0,1,7.363,0l26.673,46.2A4.261,4.261,0,0,1,57.6,54.719H4.255A4.244,4.244,0,0,1,.585,48.334Z" transform="translate(60.97 1050.578) rotate(30)"/>
    <path id="Path_67" data-name="Path 67" class="cls-2" d="M45.85,134.041,3.357,91A9.923,9.923,0,0,1,.863,81.39L16.871,23.07a9.922,9.922,0,0,1,7.075-6.984L82.447.8a9.932,9.932,0,0,1,9.614,2.63l42.493,43.037a9.923,9.923,0,0,1,2.494,9.614L121.04,114.4a9.922,9.922,0,0,1-7.075,6.984l-58.5,15.283A9.932,9.932,0,0,1,45.85,134.041Z" transform="translate(-63.704 1014.983)"/>
  </g>
</svg>
