<svg xmlns="http://www.w3.org/2000/svg" viewBox="2566.427 1232 266.123 275.332">
  <defs>
    <style>
      .cls-1 {
        fill: #57fea7;
      }

      .cls-2 {
        fill: #1d2055;
      }

      .cls-3 {
        fill: #fff;
      }

      .cls-4 {
        fill: none;
        stroke: #fff;
        stroke-miterlimit: 10;
      }

      .cls-5 {
        fill: rgba(29,32,85,0.18);
      }
    </style>
  </defs>
  <g id="Group_20" data-name="Group 20" transform="translate(1399)">
    <g id="XMLID_1_" transform="translate(1182.328 1344.449) rotate(9)">
      <g id="Group_12" data-name="Group 12" transform="translate(0.5 0.5)">
        <path id="Path_42" data-name="Path 42" class="cls-1" d="M143.86,78.1a47.095,47.095,0,1,1-74.66,38.22A47.122,47.122,0,0,0,116.325,69.2,47.684,47.684,0,0,1,143.86,78.1Z" transform="translate(-22.144 -22.144)"/>
        <path id="Path_43" data-name="Path 43" class="cls-1" d="M65.567,161.867,28.1,124.4a46.821,46.821,0,0,0,28.152,9.384A47.629,47.629,0,0,0,65.567,161.867Z" transform="translate(-9.195 -39.534)"/>
        <path id="Path_44" data-name="Path 44" class="cls-2" d="M85.914,20.158a46.877,46.877,0,0,1,8.836,27.4A47.122,47.122,0,0,0,47.625,94.681,46.669,46.669,0,0,1,19.473,85.3h0a47.078,47.078,0,1,1,66.44-65.139Z" transform="translate(-0.5 -0.5)"/>
        <path id="Path_45" data-name="Path 45" class="cls-3" d="M116.325,69.3A47.122,47.122,0,0,1,69.2,116.425,47.21,47.21,0,0,1,116.325,69.3Z" transform="translate(-22.144 -22.175)"/>
        <path id="Path_46" data-name="Path 46" class="cls-1" d="M125.2,29.2l36.3,36.3a46.719,46.719,0,0,0-27.535-8.9A46.821,46.821,0,0,0,125.2,29.2Z" transform="translate(-39.786 -9.542)"/>
      </g>
      <g id="Group_13" data-name="Group 13" transform="translate(0.5 0.5)">
        <path id="Path_47" data-name="Path 47" class="cls-4" d="M78.515,144.508A47.091,47.091,0,1,0,69.2,116.425,47.629,47.629,0,0,0,78.515,144.508Z" transform="translate(-22.144 -22.175)"/>
        <path id="Path_48" data-name="Path 48" class="cls-4" d="M19.4,85.366a47.071,47.071,0,0,0,66.44-65.139A47.078,47.078,0,1,0,19.4,85.366" transform="translate(-0.5 -0.5)"/>
        <path id="Path_49" data-name="Path 49" class="cls-4" d="M28.1,124.3v.068l37.467,37.467h.068" transform="translate(-9.195 -39.503)"/>
        <path id="Path_50" data-name="Path 50" class="cls-4" d="M124.2,28.2l.685.685,36.3,36.3.548.548" transform="translate(-39.471 -9.227)"/>
      </g>
    </g>
    <path id="Path_68" data-name="Path 68" class="cls-5" d="M19.7,168.1l-18-58.8A28.215,28.215,0,0,1,3.8,87.8L32.7,33.5A28.291,28.291,0,0,1,49.4,19.7l58.8-18a28.215,28.215,0,0,1,21.5,2.1L184,32.7a28.291,28.291,0,0,1,13.8,16.7l18,58.8a28.215,28.215,0,0,1-2.1,21.5L184.8,184a28.291,28.291,0,0,1-16.7,13.8l-58.8,18a28.215,28.215,0,0,1-21.5-2.1L33.5,184.8A27.946,27.946,0,0,1,19.7,168.1Z" transform="translate(1216.525 1231.525)"/>
  </g>
</svg>
